<svg width="24" height="24" viewBox="0 0 24 24" fill="none" xmlns="http://www.w3.org/2000/svg">
<path d="M4.64019 4.96402C4.76743 4.71517 5.02335 4.55859 5.30283 4.55859H9.02402C9.263 4.55859 9.48744 4.67335 9.62736 4.86709L13.173 9.77643L18.1729 4.77658C18.4635 4.48593 18.9347 4.48593 19.2253 4.77658C19.516 5.06722 19.516 5.53845 19.2253 5.82909L14.0558 10.9987L19.3024 18.2633C19.4661 18.49 19.489 18.7891 19.3618 19.038C19.2345 19.2868 18.9786 19.4433 18.6991 19.4433H14.9779C14.7389 19.4433 14.5145 19.3286 14.3746 19.1349L10.829 14.2255L5.82909 19.2253C5.53845 19.516 5.06723 19.516 4.77658 19.2253C4.48593 18.9347 4.48593 18.4635 4.77658 18.1729L9.9462 13.0032L4.6995 5.73857C4.53586 5.512 4.51296 5.21286 4.64019 4.96402Z" fill="white" fill-opacity="0.8"/>
</svg>
